<svg width="200" height="280" viewBox="0 0 200 280" xmlns="http://www.w3.org/2000/svg">
  <defs>
    <linearGradient id="fur" x1="0%" y1="0%" x2="100%" y2="100%">
      <stop offset="0%" stop-color="#fb923c"/>
      <stop offset="100%" stop-color="#f97316"/>
    </linearGradient>
    <linearGradient id="sky" x1="0%" y1="0%" x2="100%" y2="100%">
      <stop offset="0%" stop-color="#e0f2fe"/>
      <stop offset="100%" stop-color="#bae6fd"/>
    </linearGradient>
  </defs>
  <rect x="8" y="8" width="184" height="264" rx="24" fill="url(#sky)"/>
  <rect x="18" y="18" width="164" height="244" rx="20" fill="#fff"/>
  <g transform="translate(100 150)">
    <path d="M-70 -40 C -20 -100 20 -100 70 -40 L 70 50 C 70 70 50 90 0 90 C -50 90 -70 70 -70 50 Z" fill="url(#fur)"/>
    <path d="M-50 -10 C -20 -40 20 -40 50 -10 L 50 35 C 50 45 35 58 0 58 C -35 58 -50 45 -50 35 Z" fill="#fff7ed"/>
    <circle cx="-25" cy="10" r="12" fill="#1f2937"/>
    <circle cx="25" cy="10" r="12" fill="#1f2937"/>
    <circle cx="-23" cy="8" r="5" fill="#f9fafb"/>
    <circle cx="27" cy="8" r="5" fill="#f9fafb"/>
    <path d="M0 35 C 10 45 25 52 0 56 C -25 52 -10 45 0 35 Z" fill="#1f2937" opacity="0.85"/>
    <path d="M-48 -25 L -65 -85 L -20 -45 Z" fill="#fde68a"/>
    <path d="M48 -25 L65 -85 L20 -45 Z" fill="#fde68a"/>
  </g>
</svg>
