<svg width="200" height="280" viewBox="0 0 200 280" xmlns="http://www.w3.org/2000/svg">
  <defs>
    <linearGradient id="penguinSky" x1="0%" y1="0%" x2="100%" y2="100%">
      <stop offset="0%" stop-color="#bae6fd"/>
      <stop offset="100%" stop-color="#7dd3fc"/>
    </linearGradient>
    <linearGradient id="penguinBody" x1="0%" y1="0%" x2="0%" y2="100%">
      <stop offset="0%" stop-color="#1f2937"/>
      <stop offset="100%" stop-color="#0f172a"/>
    </linearGradient>
  </defs>
  <rect x="8" y="8" width="184" height="264" rx="24" fill="url(#penguinSky)"/>
  <rect x="18" y="18" width="164" height="244" rx="20" fill="#fff"/>
  <g transform="translate(100 150)">
    <path d="M-55 -20 C -55 -80 55 -80 55 -20 L 55 70 C 55 90 35 108 0 108 C -35 108 -55 90 -55 70 Z" fill="url(#penguinBody)"/>
    <ellipse cx="0" cy="22" rx="45" ry="60" fill="#f9fafb"/>
    <ellipse cx="-22" cy="0" rx="13" ry="18" fill="#0f172a"/>
    <ellipse cx="22" cy="0" rx="13" ry="18" fill="#0f172a"/>
    <circle cx="-19" cy="-5" r="4" fill="#f1f5f9"/>
    <circle cx="25" cy="-5" r="4" fill="#f1f5f9"/>
    <path d="M0 22 C 8 32 18 40 0 44 C -18 40 -8 32 0 22 Z" fill="#0f172a" opacity="0.85"/>
    <path d="M0 50 C 22 80 40 100 10 105 C 0 104 -10 104 -20 105 C -48 100 -22 80 0 50 Z" fill="#facc15"/>
    <path d="M-50 -22 L -62 -72 L -18 -35 Z" fill="#fde68a"/>
    <path d="M50 -22 L62 -72 L18 -35 Z" fill="#fde68a"/>
  </g>
</svg>
